<svg width="33" height="33" viewBox="0 0 33 33" fill="none" xmlns="http://www.w3.org/2000/svg">
<path d="M16.4174 3.03876L13.1037 10.7525H9.7899C9.2399 10.7525 8.70365 10.7938 8.18115 10.9038L9.55615 7.60376L9.61115 7.48001L9.69365 7.26001C9.7349 7.16376 9.7624 7.08126 9.80365 7.01251C11.3987 3.31376 13.1862 2.15876 16.4174 3.03876Z" fill="#ACACAC"/>
<path d="M25.7538 11.1237L25.7263 11.11C24.9013 10.8762 24.0625 10.7525 23.21 10.7525H14.6025L17.6963 3.56125L17.7375 3.465C17.93 3.53375 18.1363 3.63 18.3425 3.69875L21.3813 4.9775C23.0725 5.67875 24.255 6.4075 24.9838 7.2875C25.1075 7.4525 25.2175 7.60375 25.3275 7.7825C25.4513 7.975 25.5475 8.1675 25.6025 8.37375C25.6575 8.4975 25.6988 8.6075 25.7263 8.73125C25.9325 9.4325 25.9463 10.23 25.7538 11.1237Z" fill="#ACACAC"/>
<path d="M17.2148 24.2825H17.5586C17.9711 24.2825 18.3148 23.9112 18.3148 23.4575C18.3148 22.88 18.1498 22.7975 17.7923 22.66L17.2148 22.4537V24.2825Z" fill="#ACACAC"/>
<path d="M25.1488 13.09C24.5301 12.9113 23.8838 12.815 23.2101 12.815H9.79008C8.85508 12.815 7.97508 12.9938 7.15008 13.3513C4.75758 14.3825 3.08008 16.7613 3.08008 19.525V22.2063C3.08008 22.5363 3.10758 22.8525 3.14883 23.1825C3.45133 27.555 5.78883 29.8925 10.1613 30.1813C10.4776 30.2225 10.7938 30.25 11.1376 30.25H21.8626C26.9501 30.25 29.6313 27.83 29.8926 23.0175C29.9063 22.7563 29.9201 22.4813 29.9201 22.2063V19.525C29.9201 16.4863 27.8988 13.9288 25.1488 13.09ZM18.2601 21.3125C18.8926 21.5325 19.7451 22 19.7451 23.4575C19.7451 24.7088 18.7688 25.7125 17.5588 25.7125H17.2151V26.015C17.2151 26.4138 16.8988 26.73 16.5001 26.73C16.1013 26.73 15.7851 26.4138 15.7851 26.015V25.7125H15.6613C14.3413 25.7125 13.2551 24.5988 13.2551 23.2238C13.2551 22.825 13.5713 22.5088 13.9701 22.5088C14.3688 22.5088 14.6851 22.825 14.6851 23.2238C14.6851 23.8013 15.1251 24.2825 15.6613 24.2825H15.7851V21.9588L14.7401 21.5875C14.1076 21.3675 13.2551 20.9 13.2551 19.4425C13.2551 18.1913 14.2313 17.1875 15.4413 17.1875H15.7851V16.885C15.7851 16.4863 16.1013 16.17 16.5001 16.17C16.8988 16.17 17.2151 16.4863 17.2151 16.885V17.1875H17.3388C18.6588 17.1875 19.7451 18.3013 19.7451 19.6763C19.7451 20.075 19.4288 20.3913 19.0301 20.3913C18.6313 20.3913 18.3151 20.075 18.3151 19.6763C18.3151 19.0988 17.8751 18.6175 17.3388 18.6175H17.2151V20.9413L18.2601 21.3125Z" fill="#ACACAC"/>
<path d="M14.6851 19.4425C14.6851 20.02 14.8501 20.1025 15.2076 20.24L15.7851 20.4462V18.6175H15.4413C15.0151 18.6175 14.6851 18.9887 14.6851 19.4425Z" fill="#ACACAC"/>
</svg>
